<?xml version="1.0" standalone="no"?>
<!DOCTYPE svg PUBLIC "-//W3C//DTD SVG 20010904//EN" "http://www.w3.org/TR/2001/REC-SVG-20010904/DTD/svg10.dtd">
<!-- Created using Krita: https://krita.org -->
<svg xmlns="http://www.w3.org/2000/svg" 
    xmlns:xlink="http://www.w3.org/1999/xlink"
    xmlns:krita="http://krita.org/namespaces/svg/krita"
    xmlns:sodipodi="http://sodipodi.sourceforge.net/DTD/sodipodi-0.dtd"
    width="182.4pt"
    height="156pt"
    viewBox="0 0 182.4 156">
<defs>
  <clipPath id="clippath0" clipPathUnits="userSpaceOnUse">
      <defs/>
   <g id="clippath0_68a7e2ce" fill="none">
     <g id="clippath0" fill="none">
      <g id="augeForm" transform="translate(0, -1.4210854715202e-14)" fill="none">
       <path id="shape0" transform="translate(-32.74, -21.0950318371096)" fill="#000000" stroke-opacity="0" stroke="#000000" stroke-width="0" stroke-linecap="square" stroke-linejoin="bevel" d="M0 25.595C19.6467 -6.39831 41.4733 -8.39831 65.48 19.595C45.8333 45.5884 24.0067 47.5884 0 25.595Z" sodipodi:nodetypes="ccc"/>
      </g>
     </g>
    </g>
  </clipPath>
 </defs>
<g id="group0" transform="translate(58.6982140479797, 68.4887847633624)" fill="none">
  <g id="augapfel" transform="matrix(0.232870974306239 -0.0580612549439202 0.0580612549439202 0.232870974306239 10.2513859520203 9.33601523663765)" fill="none">
   <path id="augenweiss" transform="translate(-32.7400000000003, -21.0950318371097)" fill="#fbf7f0" stroke-opacity="0" stroke="#000000" stroke-width="0" stroke-linecap="square" stroke-linejoin="bevel" d="M0 25.595C19.6467 -6.39831 41.4733 -8.39831 65.48 19.595C45.8333 45.5884 24.0067 47.5884 0 25.595Z" sodipodi:nodetypes="ccc"/>
   <g id="group1" fill="none" clip-path="url(#clippath0)">
    <circle id="iris" transform="translate(-36.32, -30.8900000000001)" r="32.39" cx="32.39" cy="32.39" fill="#2e1a0e" stroke-opacity="0" stroke="#000000" stroke-width="0" stroke-linecap="square" stroke-linejoin="bevel"/>
    <circle id="pupille" transform="translate(-25.9000000000001, -17.99)" r="20.99" cx="20.99" cy="20.99" fill="#0a0605" stroke-opacity="0" stroke="#000000" stroke-width="0" stroke-linecap="square" stroke-linejoin="bevel"/>
    <circle id="glanz-gross" transform="translate(-21.9300000000002, -20.4000000000001)" r="10.8" cx="10.8" cy="10.8" fill="#ffffff" stroke-opacity="0" stroke="#000000" stroke-width="0" stroke-linecap="square" stroke-linejoin="bevel"/>
    <circle id="glanz-klein" transform="translate(0.029999999999859, 8.09999999999978)" r="3.9" cx="3.9" cy="3.9" opacity="0.8" fill="#ffffff" stroke-opacity="0" stroke="#000000" stroke-width="0" stroke-linecap="square" stroke-linejoin="bevel"/>
   </g>
  </g>
  <path id="oberlid" transform="matrix(0.232870974306239 -0.0580612549439202 0.0580612549439202 0.232870974306239 1.40238623168947 6.32452010657275)" fill="none" stroke="#261a14" stroke-width="8.87" stroke-linecap="round" stroke-linejoin="miter" stroke-miterlimit="2" d="M0 25.595C19.6467 -6.39831 41.4733 -8.39831 65.48 19.595" sodipodi:nodetypes="cc"/>
  <path id="wimpern" transform="matrix(0.232870974306239 -0.0580612549439202 0.0580612549439202 0.232870974306239 11.0569016464194 1.19780368949311)" fill="none" stroke="#261a14" stroke-width="5.49" stroke-linecap="round" stroke-linejoin="miter" stroke-miterlimit="2" d="M0 13.5L5.89 0M11.46 21.59L20.63 11.09" sodipodi:nodetypes="cccc"/>
 </g>
</svg>
